<svg xmlns="http://www.w3.org/2000/svg" viewBox="0 0 560 130"><title>Logo_Fernstudium2</title><path d="M260.73,20.79h4.16v8.1h6.74v-8.1h4.16V40.22a.7.7,0,0,1-.64.75h-3.52V32.29h-6.74V41h-4.16Z" style="fill:#1d1d1b"/><path d="M337.7,29c0-5,3-8.62,8.13-8.62S354,24.06,354,29v3.7c0,5-3,8.62-8.13,8.62s-8.13-3.65-8.13-8.62Zm12,3.39V29.37c0-2.92-.78-5.47-3.85-5.47S342,26.45,342,29.37v3.06c0,2.95.81,5.47,3.85,5.47s3.84-2.53,3.84-5.48Z" style="fill:#1d1d1b"/><path d="M376.23,27.88c0-4.8,2.93-7.46,7.53-7.46a19.13,19.13,0,0,1,5.83.87l-.73,3.33a15.15,15.15,0,0,0-4.53-.73c-2.37,0-3.81,1-3.81,4.31v5.38c0,3.3,1.44,4.31,3.81,4.31a15.7,15.7,0,0,0,4.53-.69l.73,3.3a18.52,18.52,0,0,1-5.83.87c-4.6,0-7.53-2.63-7.53-7.46Z" style="fill:#1d1d1b"/><path d="M425.61,20.79h4.17v8.1h6.74v-8.1h4.16V40.22A.7.7,0,0,1,440,41h-3.52V32.29h-6.74V41H425.6Z" style="fill:#1d1d1b"/><path d="M292,74.3a17.08,17.08,0,0,0,5.23,1.07c1.94,0,2.78-1,2.78-2.43,0-3.94-8.36-2.46-8.36-9.37,0-3.59,3-5.67,7-5.67A14,14,0,0,1,303.8,59l-1.07,3.24a11.29,11.29,0,0,0-4.11-.87c-1.74,0-2.59.87-2.59,2.2,0,3.39,8.36,2.51,8.36,9.37,0,3.56-2.89,5.9-7.12,5.9a18.15,18.15,0,0,1-6-1.19Z" style="fill:#1d1d1b"/><path d="M323.19,65.35c0-4.8,2.92-7.46,7.52-7.46a19.2,19.2,0,0,1,5.83.87l-.73,3.33a15.12,15.12,0,0,0-4.53-.73c-2.37,0-3.81,1-3.81,4.31V71c0,3.3,1.44,4.31,3.81,4.31a15.62,15.62,0,0,0,4.53-.69l.73,3.3a18.54,18.54,0,0,1-5.83.87c-4.6,0-7.52-2.63-7.52-7.46Z" style="fill:#1d1d1b"/><path d="M395.27,58.27h4.16v8.1h6.74v-8.1h4.16V77.7a.7.7,0,0,1-.64.75h-3.52V69.78h-6.74v8.68h-4.16Z" style="fill:#1d1d1b"/><path d="M452.42,58.27h4.16v13c0,1.94,1,4,3.61,4s3.59-2.11,3.59-4v-13H468V70.82c0,5-2.72,8-7.77,8s-7.77-3-7.77-8Z" style="fill:#1d1d1b"/><path d="M487.73,58.27h4.16V75h8.56V77.7a.7.7,0,0,1-.64.75H487.73Z" style="fill:#1d1d1b"/><path d="M533.91,63.82c0-3.35,2.14-5.55,6.39-5.55h5.58v3.48h-5.52c-1.74,0-2.29.78-2.29,2.4v2.26H545v3.44h-6.94v2.78c0,1.64.55,2.37,2.29,2.37H546v2.72a.7.7,0,0,1-.64.75h-5.06c-4.22,0-6.39-2.2-6.39-5.52Z" style="fill:#1d1d1b"/><path d="M265.42,99.26h-4.69V95.79h13.54v3.47h-4.68V116h-4.16Z" style="fill:#1d1d1b"/><path d="M307.3,96.63a22.87,22.87,0,0,1,6.54-1.21A6.63,6.63,0,0,1,317,108l3.7,8h-4.57l-3.24-7.34h-1.48V116h-4.16Zm6.22,8.71c1.94,0,2.92-1.24,2.92-3.24,0-1.79-.75-3.24-2.64-3.24a7.26,7.26,0,0,0-2.34.35v6.1Z" style="fill:#1d1d1b"/><path d="M366.1,95.79h4.16v19.43a.7.7,0,0,1-.64.75H366.1Z" style="fill:#1d1d1b"/><path d="M382.65,101.34c0-3.35,2.14-5.55,6.39-5.55h5.58v3.47H389.1c-1.74,0-2.29.78-2.29,2.4v2.25h6.94v3.44h-6.94v2.78c0,1.65.55,2.37,2.29,2.37h5.64v2.72a.7.7,0,0,1-.64.75H389c-4.22,0-6.39-2.2-6.39-5.52Z" style="fill:#1d1d1b"/><path d="M428.53,96.63a22.85,22.85,0,0,1,6.53-1.2A6.63,6.63,0,0,1,438.24,108l3.7,8h-4.57l-3.24-7.34h-1.45V116h-4.16Zm6.22,8.7c1.94,0,2.92-1.24,2.92-3.24,0-1.79-.75-3.24-2.63-3.24a7.27,7.27,0,0,0-2.34.35v6.1Z" style="fill:#1d1d1b"/><rect x="229.5" y="20.84" width="1.11" height="95.14" style="fill:#1d1d1b"/><path d="M68.2,58.79h1.3V78a.47.47,0,0,1-.43.51H68.2Z" style="fill:#1d1d1b"/><path d="M76.25,64.13h.89l.23,1.61a7.71,7.71,0,0,1,4.66-2c3.24,0,4.8,2,4.8,4.8V78a.47.47,0,0,1-.43.51h-.81V69c0-2.59-.82-4.09-3.61-4.09-1.61,0-3,.9-4.49,2V78.5H76.25Z" style="fill:#1d1d1b"/><path d="M93.33,65.2,91,65.09v-1h2.37V61.75a3.79,3.79,0,0,1,3.92-4.12,7.87,7.87,0,0,1,2,.23L99.06,59a7.88,7.88,0,0,0-1.81-.2c-1.44,0-2.68.73-2.68,3.13v2.18h3.64V65.2H94.57V78a.47.47,0,0,1-.43.51h-.81Z" style="fill:#1d1d1b"/><path d="M101.89,69.91c0-3.89,2.18-6.15,5.71-6.15s5.71,2.29,5.71,6.15v2.77c0,3.84-2.14,6.18-5.71,6.18s-5.71-2.34-5.71-6.18Zm1.3,2.54c0,3.1,1.3,5.22,4.43,5.22S112,75.55,112,72.45V70.11c0-3.08-1.3-5.18-4.43-5.18s-4.43,2.09-4.43,5.18Z" style="fill:#1d1d1b"/><path d="M119.09,64.13H120l.23,2.23c1-1.3,2.45-2.59,4-2.59a6.77,6.77,0,0,1,1.3.14l-.2,1.16a4.86,4.86,0,0,0-1.1-.11c-1.24,0-2.88,1.44-3.89,2.91V78.51h-1.24Z" style="fill:#1d1d1b"/><path d="M130.32,64.13h.91l.23,1.61a7.1,7.1,0,0,1,4.32-2A4.37,4.37,0,0,1,140,66a7.92,7.92,0,0,1,4.8-2.2c3.24,0,4.8,2,4.8,4.8V78a.47.47,0,0,1-.43.51h-.81V69c0-2.59-.82-4.09-3.61-4.09A7.25,7.25,0,0,0,140.38,67a5.45,5.45,0,0,1,.2,1.55V78.5h-1.27V69c0-2.59-.82-4.09-3.61-4.09a7,7,0,0,0-4.15,2V78.5H130.3Z" style="fill:#1d1d1b"/><path d="M164,77a7.62,7.62,0,0,1-4.74,1.89c-2.88,0-4.49-1.72-4.49-4,0-2.85,2.34-4,6-4h3.16V69.07c0-2.77-1-4.12-3.92-4.12a13.07,13.07,0,0,0-3.89.65l-.31-1.16a14.21,14.21,0,0,1,4.18-.65c3.59,0,5.18,2,5.18,4.86v9.88h-.91Zm-.11-5h-3.08c-2.93,0-4.77.73-4.77,2.85,0,1.66,1,2.82,3.24,2.82a7.3,7.3,0,0,0,4.63-1.94Z" style="fill:#1d1d1b"/><path d="M171.6,65.2l-2.37-.11v-1h2.37V59.3h1.24v4.83h3.64V65.2h-3.64v9.35c0,2.4,1.24,3.13,2.68,3.13a9.86,9.86,0,0,0,1.81-.19l.17,1.16a7.87,7.87,0,0,1-2,.23,3.79,3.79,0,0,1-3.92-4.12Z" style="fill:#1d1d1b"/><path d="M181.71,60.09a.88.88,0,0,1,.86-.9h.07a.91.91,0,0,1,1,.85v0a1,1,0,0,1-1,1,1,1,0,0,1-.93-1Zm.31,4h1.24V78a.47.47,0,0,1-.43.51h-.78Z" style="fill:#1d1d1b"/><path d="M189.76,58H191V70.71l3.67-1a2.49,2.49,0,0,0,1.63-1.52l1.64-4.12h1.3l-1.81,4.49a3.78,3.78,0,0,1-2.14,2.18l4.4,7.71h-1.44l-4.15-7.37-3.08.82v6a.47.47,0,0,1-.43.51h-.83Z" style="fill:#1d1d1b"/><path d="M39.37,96.38H49.51v1.21H40.64v8.08h8v1.21h-8v9.21h-1.3Z" style="fill:#1d1d1b"/><path d="M53.83,107a5.37,5.37,0,0,1,5.45-5.65,5.46,5.46,0,0,1,5.48,5.44q0,.11,0,.21v1.39a.5.5,0,0,1-.48.51H55v1.94a4.16,4.16,0,0,0,4.29,4.43,15.28,15.28,0,0,0,4.46-.79l.28,1.16a15.37,15.37,0,0,1-4.74.82,5.41,5.41,0,0,1-5.52-5.31q0-.15,0-.3Zm9.71.79V107c0-2-1.19-4.46-4.24-4.46s-4.21,2.4-4.21,4.46v.79Z" style="fill:#1d1d1b"/><path d="M70.37,101.72h.94l.23,2.23c1-1.3,2.45-2.59,4-2.59a6.77,6.77,0,0,1,1.3.14l-.2,1.16a4.86,4.86,0,0,0-1.1-.11c-1.24,0-2.88,1.44-3.89,2.91v10.63H70.37Z" style="fill:#1d1d1b"/><path d="M81.62,101.72h.91l.23,1.61a7.71,7.71,0,0,1,4.66-2c3.24,0,4.8,2,4.8,4.8v9.43a.47.47,0,0,1-.43.51H91v-9.46c0-2.59-.82-4.09-3.61-4.09-1.61,0-3,.9-4.49,2v11.57H81.62Z" style="fill:#1d1d1b"/><path d="M97.65,114.53a12.65,12.65,0,0,0,3.78.73c2.34,0,3.36-1.13,3.36-2.82,0-3.36-7.12-2.91-7.12-7.29,0-2.4,1.83-3.81,4.49-3.81a10.4,10.4,0,0,1,3.33.54l-.31,1.13a10.91,10.91,0,0,0-3-.48c-2.06,0-3.19,1-3.19,2.62,0,3.24,7.12,2.91,7.12,7.29,0,2.45-1.75,4-4.66,4a13.16,13.16,0,0,1-4-.71Z" style="fill:#1d1d1b"/><path d="M111.63,102.79l-2.37-.11v-1h2.37V96.89h1.24v4.83h3.64v1.08h-3.64v9.35c0,2.4,1.24,3.13,2.68,3.13a9.86,9.86,0,0,0,1.81-.19l.17,1.16a7.87,7.87,0,0,1-2,.23,3.79,3.79,0,0,1-3.92-4.12Z" style="fill:#1d1d1b"/><path d="M121.9,102.22a.47.47,0,0,1,.44-.51h.78v9.46c0,2.59.82,4.09,3.61,4.09a7.73,7.73,0,0,0,4.49-2V101.72h1.24v14.37h-.91l-.23-1.61a7.73,7.73,0,0,1-4.66,2c-3.24,0-4.8-2-4.8-4.82Z" style="fill:#1d1d1b"/><path d="M138.28,107c0-3.53,1.94-5.65,5.18-5.65a7.65,7.65,0,0,1,4.53,1.89V95.59h1.24v20.5h-.86l-.23-1.61a7.71,7.71,0,0,1-4.66,2c-3.24,0-5.18-2.14-5.18-5.65Zm1.3,3.36c0,3.24,1.24,4.91,4,4.91,1.61,0,3.19-1,4.43-1.94v-8.78c-1.44-1.08-2.88-2-4.43-2-2.8,0-4,1.64-4,4.88Z" style="fill:#1d1d1b"/><path d="M155.45,97.68a.88.88,0,0,1,.86-.9h.07a.91.91,0,0,1,1,.85v0a1,1,0,0,1-1,1,1,1,0,0,1-.93-1Zm.31,4H157v13.86a.47.47,0,0,1-.43.51h-.81Z" style="fill:#1d1d1b"/><path d="M163.36,102.22a.47.47,0,0,1,.44-.51h.77v9.46c0,2.59.82,4.09,3.61,4.09a7.73,7.73,0,0,0,4.49-2V101.72h1.24v14.37H173l-.23-1.61a7.73,7.73,0,0,1-4.66,2c-3.24,0-4.8-2-4.8-4.82Z" style="fill:#1d1d1b"/><path d="M180.44,101.72h.91l.23,1.61a7.1,7.1,0,0,1,4.32-2,4.37,4.37,0,0,1,4.21,2.2,7.92,7.92,0,0,1,4.8-2.2c3.24,0,4.8,2,4.8,4.8v9.43a.47.47,0,0,1-.43.51h-.81v-9.46c0-2.59-.82-4.09-3.61-4.09a7.25,7.25,0,0,0-4.35,2.06,5.45,5.45,0,0,1,.19,1.55v9.93h-1.24v-9.46c0-2.59-.82-4.09-3.61-4.09a7,7,0,0,0-4.15,2v11.55h-1.24Z" style="fill:#1d1d1b"/></svg>